<svg xmlns="http://www.w3.org/2000/svg" width="64" height="64" viewBox="0 0 2048 2048" xml:space="preserve"><g transform="matrix(1.1787 0 0 1.1787 1024 1024)"><linearGradient id="a" gradientUnits="userSpaceOnUse" gradientTransform="translate(-868.75 -868.75)" x1="342.5" y1="1737.5" x2="1400" y2="0"><stop offset="0%" style="stop-color:#0d4c78;stop-opacity:1"/><stop offset="100%" style="stop-color:#28ddfa;stop-opacity:1"/></linearGradient><path style="stroke:#55c4be;stroke-width:0;stroke-dasharray:none;stroke-linecap:butt;stroke-dashoffset:0;stroke-linejoin:miter;stroke-miterlimit:4;fill:url(#a);fill-rule:nonzero;opacity:1" d="M-868.75-500.17c0-203.561 165.019-368.58 368.58-368.58H500.17c203.561 0 368.58 165.019 368.58 368.58V500.17c0 203.561-165.019 368.58-368.58 368.58H-500.17c-203.561 0-368.58-165.019-368.58-368.58z"/></g><path style="stroke:none;stroke-width:1;stroke-dasharray:none;stroke-linecap:butt;stroke-dashoffset:0;stroke-linejoin:miter;stroke-miterlimit:4;fill:#fff;fill-rule:nonzero;opacity:1" transform="matrix(2.93331 0 0 2.93331 1024 1024)" d="M112-224h-224c-61.828.066-111.934 50.172-112 112v224c.066 61.828 50.172 111.934 112 112h224c61.828-.066 111.934-50.172 112-112v-224c-.066-61.828-50.172-111.934-112-112zm36.21 178L114.89-6.79A41.76 41.76 0 0 1 83 8.05a42.32 42.32 0 0 1-22.29-6.38C46.49-7.11 24.41-17.58.02-17.58S-46.45-7.11-60.67 1.67c-17.655 11.06-40.756 7.454-54.2-8.46L-148.21-46c-17.783-20.773-15.792-51.93 4.49-70.27 27.84-25.35 75.37-55.57 143.72-55.57s115.88 30.22 143.72 55.57c20.282 18.34 22.273 49.497 4.49 70.27z"/><path style="stroke:#023a96;stroke-width:0;stroke-dasharray:none;stroke-linecap:butt;stroke-dashoffset:0;stroke-linejoin:miter;stroke-miterlimit:4;fill:#fff;fill-rule:nonzero;opacity:1" transform="matrix(.46765 -.42107 1.91366 2.12534 886.086 875.424)" d="M-72.727-57.514c0-8.402 30.954-15.213 69.138-15.213h13.05c34.94 0 63.266 6.232 63.266 13.92V57.515c0 8.402-30.954 15.213-69.138 15.213h-13.05c-34.94 0-63.266-6.232-63.266-13.92z"/></svg>