<?xml version="1.0" standalone="no"?>
<!DOCTYPE svg PUBLIC "-//W3C//DTD SVG 20010904//EN"
 "http://www.w3.org/TR/2001/REC-SVG-20010904/DTD/svg10.dtd">
<svg version="1.0" xmlns="http://www.w3.org/2000/svg"
 width="1275.000000pt" height="1280.000000pt" viewBox="0 0 1275.000000 1280.000000"
 preserveAspectRatio="xMidYMid meet">
<metadata>
Created by potrace 1.15, written by Peter Selinger 2001-2017
</metadata>
<g transform="translate(0.000000,1280.000000) scale(0.100000,-0.100000)"
fill="#673ab7" stroke="none">
<path d="M6180 12785 c-555 -78 -987 -484 -1065 -1002 -22 -147 -22 -4859 0
-5006 78 -521 506 -922 1070 -1002 499 -72 1002 143 1273 542 89 131 152 296
177 460 22 147 22 4859 0 5006 -52 345 -258 643 -571 828 -264 156 -574 217
-884 174z"/>
<path d="M2740 10354 c-81 -10 -238 -48 -311 -74 -189 -70 -330 -162 -499
-325 -68 -66 -171 -165 -228 -220 -130 -125 -350 -367 -475 -523 -602 -749
-999 -1621 -1151 -2527 -244 -1448 115 -2912 1009 -4120 687 -928 1654 -1656
2790 -2100 617 -241 1253 -385 1980 -447 197 -17 854 -16 1045 0 503 45 960
126 1368 242 1633 468 2989 1504 3773 2881 641 1128 855 2428 608 3684 -215
1091 -762 2086 -1601 2912 -99 97 -162 152 -174 151 -10 -1 -49 22 -86 50
-345 262 -813 338 -1238 200 -369 -119 -674 -412 -790 -758 -50 -148 -67 -364
-40 -510 54 -297 231 -564 494 -745 164 -114 438 -464 620 -794 199 -361 317
-724 378 -1161 8 -62 13 -195 12 -385 -1 -313 -12 -425 -69 -681 -296 -1321
-1412 -2375 -2859 -2699 -536 -120 -1134 -132 -1676 -35 -1097 197 -2051 822
-2610 1710 -143 228 -300 577 -374 832 -200 690 -158 1434 118 2103 101 243
295 573 461 785 154 195 371 422 485 506 325 239 504 628 462 1001 -31 265
-135 479 -331 674 -183 182 -406 300 -671 354 -73 15 -350 27 -420 19z"/>
</g>
</svg>
