<svg xmlns="http://www.w3.org/2000/svg" viewBox="0 0 480 120">
  <g transform="scale(3)">
    <path fill="#76BC21" d="M14.35 2.37012H9.04004v5.31H14.35v-5.31ZM5.24994 11.5801H-.0600586v5.31H5.24994v-5.31Zm0-9.20998H-.0600586v5.31H5.24994v-5.31Z"/>
    <path fill="#4A4F54" d="M54.0001 11.5801v5.09h-14.25v3.58H50.34v4.8H39.7501v3.49h14.8v5.13h-20.12v-22.09h19.57Zm22.0899 8.31c-.7108-1.2143-1.7365-2.214-2.9687-2.8934-1.2322-.6795-2.625-1.0134-4.0313-.9666-.8876-.0346-1.7732.1104-2.6035.4263-.8303.3158-1.5883.796-2.2285 1.4118-.6403.6159-1.1496 1.3546-1.4976 2.172-.3479.8173-.5272 1.6965-.5272 2.5849 0 .8883.1793 1.7675.5272 2.5849.348.8174.8573 1.5561 1.4976 2.1719.6402.6159 1.3982 1.0961 2.2285 1.4119.8303.3159 1.7159.4609 2.6035.4263 1.3864.0875 2.7705-.2041 4.0038-.8436 1.2332-.6395 2.269-1.6028 2.9962-2.7864l4.29 2.41c-2.24 4.19-6.51 6.27-11.35 6.27-6.74 0-12-4.43-12-11.59s5.51-11.58 12-11.58c5 0 9.08 2.11 11.35 6.27l-4.29 2.52Zm77.6 0c-.711-1.2143-1.737-2.214-2.969-2.8934-1.232-.6795-2.625-1.0134-4.031-.9666-.888-.0346-1.773.1104-2.603.4263-.831.3158-1.589.796-2.229 1.4118-.64.6159-1.15 1.3546-1.498 2.172-.347.8173-.527 1.6965-.527 2.5849 0 .8883.18 1.7675.527 2.5849.348.8174.858 1.5561 1.498 2.1719.64.6159 1.398 1.0961 2.229 1.4119.83.3159 1.715.4609 2.603.4263 1.387.0886 2.771-.2025 4.005-.8421 1.233-.6397 2.269-1.6035 2.995-2.7879l4.31 2.41c-2.24 4.19-6.51 6.27-11.35 6.27-6.74 0-12-4.43-12-11.59s5.51-11.58 12-11.58c5 0 9.08 2.11 11.35 6.27l-4.31 2.52Zm-136.59-8.31H8.90002v8.2H17.1v-8.2Z"/>
    <path fill="#4A4F54" d="M21.3 11.5801h-.38v5.13h.8c.4616-.0446.9273.0101 1.3659.1604.4387.1503.8401.3927 1.1773.711.3372.3183.6024.705.7778 1.1342.1754.4293.2569.891.239 1.3544.0248.4727-.0505.9452-.221 1.3868-.1705.4415-.4324.8421-.7685 1.1753-.3362.3333-.7389.5918-1.1818.7586-.443.1668-.9162.2381-1.3887.2093H8.90002v10.07H14.22v-4.93h7.08c5.31 0 9.23-3.4 9.23-8.63s-3.92-8.53-9.23-8.53Zm79.24 16.91L106.3 11.58h-5.41l-3.16 9.8701h-6.21c-.2714-.0011-.5353-.0891-.753-.251-.2178-.162-.3779-.3894-.457-.6491l-2.7-9h-5.34l3.24 10.17c1.08 3.2 3.12 4.38 6.64 4.38h4.16L96 27.19c-.1668.5284-.4987.9893-.9469 1.3151s-.989.4993-1.5431.4949h-6.75l-1.54 4.7201h8.09c1.6016-.0027 3.1617-.5093 4.4593-1.4479 1.2976-.9387 2.2667-2.2619 2.7707-3.7821ZM24.27 3.41989H22v4.26h-1.08v-5.29h3.35v1.03Zm6.04.75005c.0171.24906-.0203.49885-.1094.73204s-.228.44417-.4069.6183c-.1789.17413-.3935.30723-.629.39007-.2355.08283-.4862.1134-.7347.08959h-1.14v1.71h-1.08v-5.32h2.22c.2447-.02641.4923.00066.7256.07934.2333.07869.4468.20711.6255.37638.1788.16928.3187.37536.41.60401.0913.22865.1319.47441.1189.72027Zm-1.09 0c0-.47-.27-.76-.83-.76h-1.1v1.53h1.1c.61 0 .83-.3.83-.76v-.01Zm4.7 3.50995h-1.21l1-1.83-1.86-3.46h1.2l1.22 2.29 1.19-2.29h1.2l-2.74 5.29Zm9.19 0H42v-4.26h-2.32v4.26H38.6v-5.29h4.51v5.29Zm6.82 0h-1.08v-4.26H46.5v4.26h-1.08v-5.29h4.51v5.29Zm5.68-1.25h-2.14l-.47 1.25h-1.12l2-5.29h1.36l2 5.29h-1.19l-.44-1.25Zm-.38-1-.69-1.92-.7 1.92h1.39Zm10.77 1h-2.19l-.46 1.25h-1.14l2-5.29h1.37l2 5.29h-1.15l-.43-1.25Zm-.38-1-.7-1.92-.69 1.92h1.39Zm7.21-2.01h-2.26v4.26h-1.08v-5.29h3.34v1.03Zm6.05.75011c.0171.24906-.0202.49886-.1093.73204-.0892.23319-.228.44417-.4069.6183-.1789.17414-.3935.30724-.629.39007-.2355.08283-.4863.1134-.7348.08959h-1.14v1.71h-1.08V2.39H77c.2445-.02468.4914.00359.7239.08291.2325.07931.4452.2078.6236.37671.1784.16892.3183.37429.4102.60214.0919.22785.1336.47282.1223.71824Zm-1.1 0c0-.47-.27-.76-.83-.76h-1.09v1.53H77c.51 0 .78-.3.78-.76v-.01Zm8.44.82995c.004.54671-.1545 1.08228-.4554 1.53879-.3008.4565-.7305.81337-1.2345 1.02533-.5039.21197-1.0595.26949-1.5962.16526-.5367-.10422-1.0303-.3655-1.4183-.75068-.388-.38519-.6529-.87693-.761-1.41285-.1081-.53593-.0547-1.09189.1536-1.59738.2083-.50549.5621-.93773 1.0164-1.2419.4543-.30417.9887-.46655 1.5354-.46657.363-.00811.7239.05707 1.0611.19164.3372.13458.6438.33578.9014.59157.2577.25579.4611.56092.5981.89714.1371.33622.2049.69662.1994 1.05965Zm-4.42 0c0 .21799.0429.43385.1264.63526.0834.2014.2057.38439.3598.53854.1542.15414.3371.27642.5385.35984.2014.08342.4173.12636.6353.12636.218 0 .4339-.04294.6353-.12636.2014-.08342.3844-.2057.5385-.35984.1541-.15415.2764-.33714.3598-.53854.0835-.20141.1264-.41727.1264-.63526 0-.21799-.0429-.43385-.1264-.63525-.0834-.2014-.2057-.3844-.3598-.53855-.1541-.15414-.3371-.27642-.5385-.35984-.2014-.08342-.4173-.12636-.6353-.12636-.218 0-.4339.04294-.6353.12636-.2014.08342-.3843.2057-.5385.35984-.1541.15415-.2764.33715-.3598.53855-.0835.2014-.1264.41726-.1264.63525Zm11 2.67994h-1.08v-4.26h-2.35v4.26h-1.08v-5.29h4.51v5.29ZM99.21 4.17c.0126.24662-.0281.49307-.1193.72257-.0911.2295-.2306.43669-.409.60747-.1784.17078-.3914.30115-.6246.38224-.2333.0811-.4813.11101-.7271.08772h-1.14v1.71h-1.08V2.39h2.22c.2444-.02468.4913.00359.7238.08291.2326.07931.4453.2078.6237.37671.1784.16892.3183.37429.4102.60214.0919.22785.1336.47282.1223.71824Zm-1.09 0c0-.47-.27-.76-.83-.76h-1.1v1.53h1.1c.56 0 .83-.3.83-.76v-.01Zm4.25-.75011v1.06h2.26v1h-2.26v1.14h2.47v1h-3.55v-5.23h3.55v1l-2.47.03Zm10.02 3.23v2.08h-1.08v-1.05h-3.58v1.05h-1.08v-2.08h.75c.151-.20347.238-.44707.25-.7l.57-3.56h3.41v4.26h.76Zm-3.82 0h2v-3.23h-1.42l-.42 2.63c-.038.20372-.092.40428-.16.6Zm10.27 1.03h-1.08v-4.26h-2.35v4.26h-1.08v-5.29h4.51v5.29Zm6.41-3.50995c.013.24662-.028.49306-.119.72257-.091.2295-.231.43669-.409.60747-.179.17078-.392.30114-.625.38224-.233.08109-.481.11101-.727.08772h-1.14v1.71h-1.08v-5.29h2.22c.245-.02641.492.00066.726.07934.233.07869.446.20711.625.37638.179.16928.319.37536.41.60401.091.22865.132.47441.119.72027Zm-1.09 0c0-.47-.27-.76-.83-.76h-1.1v1.53h1.1c.56 0 .83-.3.83-.76v-.01Zm7.65-1.78005v5.29h-1.08v-2.21l.1-1.49-2.3 3.7h-1.24v-5.29h1.08v2.21l-.1 1.49 2.31-3.7h1.23Zm6.29 0v5.29H137v-1.82h-.68l-1.29 1.82h-1.33l1.42-1.93c-.345-.10207-.645-.31972-.849-.61648-.204-.29676-.3-.65459-.271-1.01352-.016-.23738.02-.47539.106-.69729s.219-.42232.391-.58719c.171-.16487.377-.29019.602-.36715.225-.07697.464-.10372.701-.07837h2.3Zm-1.1 2.49v-1.46h-1.08c-.56 0-.83.29-.83.73s.27.73.83.73H137Zm7.16-1.45997h-1.53v4.26h-1.08v-4.26H140v-1h4.12l.04 1Zm6.43-1.03003v5.29h-1.08v-2.21l.1-1.49-2.3 3.7h-1.24v-5.29h1.08v2.21l-.1 1.49 2.3-3.7h1.24Zm6.76.00004v5.29h-1.08v-2.21l.1-1.49-2.3 3.7h-1.24v-5.29h1.08v2.21l-.1 1.49 2.3-3.7h1.24ZM153.82.629932v-.2h.85v.17c-.009.059897-.006.121103.011.179414.017.058311.046.112343.085.158387.039.046043.088.083007.143.108347.055.02534.115.03847.176.03847.061 0 .12-.01313.176-.03847.055-.02534.104-.062304.143-.108347.039-.046044.068-.100076.085-.158387s.02-.119517.011-.179414v-.17h.85v.2c-.028.316086-.174.610188-.408.824398-.234.21422-.54.33302-.857.33302-.317 0-.623-.1188-.857-.33302-.234-.21421-.38-.508312-.408-.824398ZM122.2 11.5801h-12.4v22.09h5.32v-4.93h7.08c5.31 0 9.23-3.4 9.23-8.63s-3.92-8.53-9.23-8.53Zm.42 12h-7.5v-6.87h7.5c.462-.0446.927.0101 1.366.1604.439.1503.84.3927 1.177.711.337.3183.603.705.778 1.1342.175.4293.257.891.239 1.3544.025.4727-.05.9452-.221 1.3868-.171.4415-.432.8421-.769 1.1753-.336.3333-.738.5918-1.181.7586-.443.1668-.917.2381-1.389.2093v-.02Z"/>
  </g>
</svg>
